<?xml version="1.0" encoding="UTF-8"?><svg id="Icons" xmlns="http://www.w3.org/2000/svg" viewBox="0 0 100 100"><defs><style>.cls-1{stroke:#fff;}.cls-1,.cls-2{fill:none;stroke-linecap:round;stroke-linejoin:round;stroke-width:2px;}.cls-2{stroke:#cd2026;}</style></defs><path class="cls-1" d="m37.44,38.51c-8.18,4.56-13.66,13.32-13.66,23.56,0,14.89,11.74,26.96,26.22,26.96s26.22-12.07,26.22-26.96c0-10.09-5.39-18.89-13.38-23.51"/><path class="cls-1" d="m60.95,31.42s5.76-7.44,8.15-15.39c0,0,1.06-3.08-.89-3.9,0,0-1.77-.69-3.54,1.61,0,0-4.03,4.87-9.08,0,0,0-2.6-2.99-5.65-2.76,0,0-2.99-.36-5.51,2.76,0,0-3.41,4.45-8.1,0,0,0-2.66-2.76-4.87-1.61,0,0-1.9.73-.44,3.9,0,0,6.47,12.4,8.68,15.39"/><line class="cls-1" x1="44.89" y1="22.35" x2="44.89" y2="31.02"/><line class="cls-2" x1="50.1" y1="44.92" x2="50.1" y2="80.57"/><line class="cls-1" x1="55.43" y1="22.35" x2="55.43" y2="31.02"/><path class="cls-2" d="m59.25,56.58s.3-7.92-8.9-8.19c0,0-9.06-.44-9.41,7.66,0,0-.3,6.82,9.15,6.95,0,0,8.89-.13,8.89,7.66,0,0,0,6.78-8.89,6.69,0,0-8.55.26-8.89-8.01"/><path class="cls-2" d="m62.97,38.4c1.99,0,3.6-1.48,3.6-3.31s-1.61-3.31-3.6-3.31h-26.14c-1.99,0-3.6,1.48-3.6,3.31s1.61,3.31,3.6,3.31h26.14Z"/></svg>