<?xml version="1.0" encoding="UTF-8"?>
<svg id="Icons" xmlns="http://www.w3.org/2000/svg" viewBox="0 0 100 100">
  <defs>
    <style>
      .cls-1 {
        stroke: #161c2d;
      }

      .cls-1, .cls-2 {
        fill: none;
        stroke-linecap: round;
        stroke-linejoin: round;
        stroke-width: 2px;
      }

      .cls-2 {
        stroke: #cd2026;
      }
    </style>
  </defs>
  <path class="cls-2" d="M49.52,72.75c14.62,0,26.48-11.86,26.48-26.48s-11.86-26.48-26.48-26.48-26.48,11.85-26.48,26.48,11.86,26.48,26.48,26.48Z"/>
  <path class="cls-1" d="M84.18,46.27c0-19.14-15.52-34.66-34.66-34.66S14.85,27.13,14.85,46.27s15.52,34.66,34.66,34.66h34.7"/>
  <polyline class="cls-1" points="77.77 73.41 85.15 80.83 77.77 88.39"/>
  <line class="cls-1" x1="49.52" y1="32.66" x2="49.52" y2="35.84"/>
  <path class="cls-1" d="M55.71,42.11s.2-5.24-6.02-5.42c0,0-6.13-.29-6.37,5.07,0,0-.2,4.51,6.19,4.6,0,0,6.02-.09,6.02,5.07,0,0,0,4.49-6.02,4.43,0,0-5.78.18-6.02-5.3"/>
  <line class="cls-1" x1="49.52" y1="56.37" x2="49.52" y2="59.88"/>
</svg>