<?xml version="1.0" encoding="UTF-8"?>
<svg id="Icons" xmlns="http://www.w3.org/2000/svg" viewBox="0 0 100 100">
  <defs>
    <style>
      .cls-1 {
        stroke: #ba1b21;
      }

      .cls-1, .cls-2, .cls-3 {
        fill: none;
        stroke-linecap: round;
        stroke-linejoin: round;
        stroke-width: 2px;
      }

      .cls-2 {
        stroke: #161c2d;
      }

      .cls-3 {
        stroke: #cd2026;
      }
    </style>
  </defs>
  <path class="cls-2" d="M30.84,37.32c-4.43-7.02-10.71-4.34-10.71-4.34v40.47c3.83,8.86,12.64,15.05,22.9,15.05,8.81,0,16.56-4.58,21-11.48"/>
  <path class="cls-2" d="M68.97,35.67l7.46-5.16c3.13-2.11,4.36-5.77,2.74-8.16-1.61-2.39-5.46-2.62-8.59-.51l-2.16,1.5"/>
  <path class="cls-1" d="M68.25,36.09V13.7c0-1.21-.98-2.2-2.2-2.2h-33c-1.21,0-2.2.98-2.2,2.2v60.86c0,1.21.98,2.2,2.2,2.2h33.84c.75,0,1.36-.61,1.36-1.36v-6.31"/>
  <path class="cls-2" d="M73.92,45.11c3.13-2.11,4.36-5.76,2.75-8.15-1.61-2.39-5.46-2.62-8.59-.51-3.13,2.11-4.36,5.76-2.75,8.15,1.61,2.39,5.46,2.62,8.59.51Z"/>
  <path class="cls-2" d="M73.92,56.42c3.13-2.11,4.36-5.76,2.75-8.15-1.61-2.39-5.46-2.62-8.59-.51-3.13,2.11-4.36,5.76-2.75,8.15,1.61,2.39,5.46,2.62,8.59.51Z"/>
  <path class="cls-2" d="M73.92,67.69c3.13-2.11,4.36-5.76,2.75-8.15-1.61-2.39-5.46-2.62-8.59-.51-3.13,2.11-4.36,5.76-2.75,8.15,1.61,2.39,5.46,2.62,8.59.51Z"/>
  <line class="cls-3" x1="45.31" y1="15.83" x2="53.79" y2="15.83"/>
  <circle class="cls-3" cx="49.55" cy="69.66" r="2.56"/>
  <line class="cls-2" x1="49.4" y1="35.5" x2="49.4" y2="37.6"/>
  <path class="cls-2" d="M53.15,41.56s.12-3.28-3.65-3.39c0,0-3.72-.18-3.86,3.18,0,0-.12,2.83,3.75,2.88,0,0,3.65-.06,3.65,3.17,0,0,0,2.81-3.65,2.77,0,0-3.5.11-3.65-3.32"/>
  <line class="cls-2" x1="49.4" y1="50.62" x2="49.4" y2="52.84"/>
</svg>