<?xml version="1.0" encoding="UTF-8"?><svg id="Icons" xmlns="http://www.w3.org/2000/svg" viewBox="0 0 100 100"><defs><style>.cls-1{stroke:#fff;}.cls-1,.cls-2{fill:none;stroke-linecap:round;stroke-linejoin:round;stroke-width:2px;}.cls-2{stroke:#cd2026;}</style></defs><line class="cls-1" x1="34.36" y1="13.94" x2="34.36" y2="21.37"/><line class="cls-1" x1="34.36" y1="78.63" x2="34.36" y2="86.06"/><line class="cls-1" x1="78.61" y1="65.61" x2="86.04" y2="65.61"/><line class="cls-1" x1="13.96" y1="65.61" x2="21.39" y2="65.61"/><line class="cls-1" x1="50" y1="13.94" x2="50" y2="21.37"/><line class="cls-1" x1="50" y1="78.63" x2="50" y2="86.06"/><line class="cls-1" x1="78.61" y1="49.97" x2="86.04" y2="49.97"/><line class="cls-1" x1="13.96" y1="49.97" x2="21.39" y2="49.97"/><line class="cls-1" x1="65.64" y1="13.94" x2="65.64" y2="21.37"/><line class="cls-1" x1="65.64" y1="78.63" x2="65.64" y2="86.06"/><line class="cls-1" x1="78.61" y1="34.33" x2="86.04" y2="34.33"/><line class="cls-1" x1="13.96" y1="34.33" x2="21.39" y2="34.33"/><rect class="cls-1" x="22" y="21.97" width="56.01" height="56.01" rx="6.53" ry="6.53"/><line class="cls-2" x1="50" y1="31.43" x2="50" y2="36.93"/><path class="cls-2" d="m58.17,44.41s.27-7.04-7.94-7.27c0,0-8.09-.39-8.4,6.8,0,0-.27,6.06,8.17,6.18,0,0,7.94-.12,7.94,6.8,0,0,0,6.02-7.94,5.94,0,0-7.63.23-7.94-7.11"/><line class="cls-2" x1="50" y1="63.08" x2="50" y2="68.57"/></svg>