<?xml version="1.0" encoding="UTF-8"?>
<svg id="Icons" xmlns="http://www.w3.org/2000/svg" viewBox="0 0 100 100">
  <defs>
    <style>
      .cls-1 {
        stroke: #161c2d;
      }

      .cls-1, .cls-2 {
        fill: none;
        stroke-linecap: round;
        stroke-linejoin: round;
        stroke-width: 2px;
      }

      .cls-2 {
        stroke: #cd2026;
      }
    </style>
  </defs>
  <path class="cls-2" d="M53.98,42.39s.11-2.81-3.14-2.91c0,0-3.2-.16-3.32,2.72,0,0-.11,2.42,3.23,2.47,0,0,3.14-.05,3.14,2.72,0,0,0,2.41-3.14,2.38,0,0-3.02.09-3.14-2.84"/>
  <line class="cls-2" x1="29.05" y1="40.33" x2="37.77" y2="41.97"/>
  <line class="cls-2" x1="71.68" y1="32.77" x2="62.16" y2="37.76"/>
  <line class="cls-2" x1="57.48" y1="56.2" x2="62.09" y2="63.1"/>
  <line class="cls-2" x1="50.75" y1="37.22" x2="50.75" y2="39.1"/>
  <line class="cls-2" x1="50.75" y1="50.07" x2="50.75" y2="52.03"/>
  <path class="cls-1" d="M50.75,57.86c7.21,0,13.06-5.92,13.06-13.23s-5.85-13.23-13.06-13.23-13.06,5.92-13.06,13.23,5.85,13.23,13.06,13.23Z"/>
  <path class="cls-1" d="M79.89,37.64c5.08,0,9.2-4.17,9.2-9.32s-4.12-9.32-9.2-9.32-9.2,4.17-9.2,9.32,4.12,9.32,9.2,9.32Z"/>
  <path class="cls-1" d="M66.26,81c5.08,0,9.2-4.17,9.2-9.32s-4.12-9.32-9.2-9.32-9.2,4.17-9.2,9.32,4.12,9.32,9.2,9.32Z"/>
  <path class="cls-1" d="M20.11,46.73c5.08,0,9.2-4.17,9.2-9.32s-4.12-9.32-9.2-9.32-9.2,4.17-9.2,9.32,4.12,9.32,9.2,9.32Z"/>
</svg>