<?xml version="1.0" encoding="UTF-8"?>
<svg id="Icons" xmlns="http://www.w3.org/2000/svg" viewBox="0 0 100 100">
  <defs>
    <style>
      .cls-1 {
        stroke: #161c2d;
      }

      .cls-1, .cls-2 {
        fill: none;
        stroke-linecap: round;
        stroke-linejoin: round;
        stroke-width: 2px;
      }

      .cls-2 {
        stroke: #cd2026;
      }

      .cls-3 {
        fill: #161c2d;
        stroke-width: 0px;
      }
    </style>
  </defs>
  <path class="cls-1" d="M34.2,38.74s3.85-2,9.57-3.38"/>
  <path class="cls-1" d="M63.24,35.33c3.82,1.09,7.64,2.98,11.2,6.03,0,0,11.1,9.87,2.62,27.44l-8.63,14.95h-3.52l-4.82-6.4"/>
  <path class="cls-1" d="M39.6,36.52s-7.09-5.43-17.81-2.72c0,0,4.32,5.55,4.86,9.79,0,0-3.85,3.16-5.94,6.24,0,0-4.16,4.86-9.21,5.17l1.58,12.64s4.09-2.39,17.5,10.56l5.94,5.55h3.45l4.33-6.51"/>
  <path class="cls-1" d="M39.52,76.43s15.03,3.24,25.05-.23"/>
  <path class="cls-2" d="M43.14,43.36s11.72-3.7,20.66,0"/>
  <path class="cls-1" d="M83.07,51.15s-.44-2.93,2.78-2.93c0,0,3.64.11,2.39,4.2,0,0-1.4,5.12-7.91,2.46"/>
  <circle class="cls-2" cx="53.02" cy="25.28" r="9.04"/>
  <path class="cls-3" d="M29.29,52.31c.77,0,1.39-.62,1.39-1.39s-.62-1.39-1.39-1.39-1.39.62-1.39,1.39.62,1.39,1.39,1.39"/>
</svg>