<?xml version="1.0" encoding="UTF-8"?><svg id="Icons" xmlns="http://www.w3.org/2000/svg" viewBox="0 0 100 100"><defs><style>.cls-1{stroke:#fff;}.cls-1,.cls-2{fill:none;stroke-linecap:round;stroke-linejoin:round;stroke-width:2px;}.cls-2{stroke:#cd2026;}</style></defs><path class="cls-2" d="m15.8,45.73c-2.36,0-4.27,1.91-4.27,4.27s1.91,4.27,4.27,4.27"/><path class="cls-2" d="m84.2,54.27c2.36,0,4.27-1.91,4.27-4.27s-1.91-4.27-4.27-4.27"/><rect class="cls-2" x="34.66" y="45.89" width="30.67" height="8.21"/><rect class="cls-1" x="23.72" y="33.55" width="10.94" height="32.9" rx="3.6" ry="3.6"/><rect class="cls-1" x="65.34" y="33.55" width="10.94" height="32.9" rx="3.6" ry="3.6"/><path class="cls-1" d="m23.58,38.76c-.09-.01-.19-.01-.29-.01h-5.3c-1.21,0-2.19.81-2.19,1.8v18.46c0,.99.98,1.8,2.19,1.8h5.7"/><path class="cls-1" d="m76.42,61.24c.09.01.19.01.29.01h5.3c1.21,0,2.19-.81,2.19-1.8v-18.46c0-.99-.98-1.8-2.19-1.8h-5.7"/></svg>