<?xml version="1.0" encoding="UTF-8"?><svg id="Icons" xmlns="http://www.w3.org/2000/svg" viewBox="0 0 100 100"><defs><style>.cls-1{stroke:#161c2d;}.cls-1,.cls-2{fill:none;stroke-linecap:round;stroke-linejoin:round;stroke-width:2px;}.cls-2{stroke:#cd2026;}</style></defs><path class="cls-1" d="m24.7,73.37v-28.68h-9.12c-2.51,0-4.55,2.06-4.55,4.6v19.47c0,2.54,2.04,4.6,4.55,4.6h9.12Z"/><path class="cls-1" d="m75.3,44.69v28.68h9.12c2.51,0,4.55-2.06,4.55-4.6v-19.47c0-2.54-2.04-4.6-4.55-4.6h-9.12Z"/><path class="cls-1" d="m81.44,44.43c-1.64-15.93-15.11-28.35-31.5-28.35s-29.88,12.44-31.5,28.38"/><path class="cls-2" d="m40.36,77.84c-1.69,4.26-3.89,6.01-3.89,6.01,8.38.66,11.11-3.89,11.11-3.89.87.1,1.75.15,2.65.15,11,0,19.92-7.81,19.92-17.43s-8.92-17.43-19.92-17.43-19.92,7.8-19.92,17.43c0,6.36,3.89,11.92,9.69,14.96l.37.2Z"/></svg>